<?xml version="1.0" encoding="UTF-8"?>
<svg width="12px" height="12px" viewBox="0 0 12 12" version="1.1" xmlns="http://www.w3.org/2000/svg" xmlns:xlink="http://www.w3.org/1999/xlink">
    <!-- Generator: Sketch 49.3 (51167) - http://www.bohemiancoding.com/sketch -->
    <title>insta</title>
    <desc>Created with Sketch.</desc>
    <defs></defs>
    <g id="main" stroke="none" stroke-width="1" fill="none" fill-rule="evenodd">
        <g id="Our-Story---desktop" transform="translate(-1293.000000, -3463.000000)" fill="#000000" fill-rule="nonzero">
            <g id="Footer" transform="translate(0.000000, 3383.000000)">
                <g id="social-icons" transform="translate(1225.000000, 80.000000)">
                    <g id="insta" transform="translate(68.000000, 0.000000)">
                        <path d="M1.53073469,0 L10.3951837,0 C11.2370204,0 11.9257959,0.623265306 11.9257959,1.53061224 L11.9257959,10.3953061 C11.9257959,11.3026531 11.2370204,11.9259184 10.3951837,11.9259184 L1.53073469,11.9259184 C0.688653061,11.9259184 0,11.3026531 0,10.3953061 L0,1.53061224 C0,0.623265306 0.688653061,0 1.53073469,0 Z M8.6875102,1.32502041 C8.39216327,1.32502041 8.15081633,1.5664898 8.15081633,1.86195918 L8.15081633,3.14706122 C8.15081633,3.44240816 8.39216327,3.684 8.6875102,3.684 L10.0354286,3.684 C10.3307755,3.684 10.5723673,3.44240816 10.5723673,3.14706122 L10.5723673,1.86195918 C10.5723673,1.5664898 10.3307755,1.32502041 10.0354286,1.32502041 L8.6875102,1.32502041 Z M10.578,5.04342857 L9.52836735,5.04342857 C9.62767347,5.36767347 9.68142857,5.71114286 9.68142857,6.0664898 C9.68142857,8.05016327 8.0215102,9.65816327 5.97428571,9.65816327 C3.92718367,9.65816327 2.2675102,8.05016327 2.2675102,6.0664898 C2.2675102,5.71089796 2.32114286,5.36755102 2.42057143,5.04342857 L1.32526531,5.04342857 L1.32526531,10.081102 C1.32526531,10.3417959 1.53857143,10.5552245 1.79938776,10.5552245 L10.1041224,10.5552245 C10.3649388,10.5552245 10.5782449,10.3419184 10.5782449,10.081102 L10.5782449,5.04342857 L10.578,5.04342857 Z M5.97416327,3.61628571 C4.65146939,3.61628571 3.57906122,4.65526531 3.57906122,5.93706122 C3.57906122,7.21885714 4.65146939,8.25783673 5.97416327,8.25783673 C7.29697959,8.25783673 8.3695102,7.21885714 8.3695102,5.93706122 C8.3695102,4.65526531 7.29710204,3.61628571 5.97416327,3.61628571 Z" id="Shape"></path>
                    </g>
                </g>
            </g>
        </g>
    </g>
</svg>