<?xml version="1.0" encoding="UTF-8"?>
<svg width="15px" height="12px" viewBox="0 0 15 12" version="1.1" xmlns="http://www.w3.org/2000/svg" xmlns:xlink="http://www.w3.org/1999/xlink">
    <!-- Generator: Sketch 49.3 (51167) - http://www.bohemiancoding.com/sketch -->
    <title>twitter</title>
    <desc>Created with Sketch.</desc>
    <defs></defs>
    <g id="main" stroke="none" stroke-width="1" fill="none" fill-rule="evenodd">
        <g id="Our-Story---desktop" transform="translate(-1255.000000, -3463.000000)" fill="#010002" fill-rule="nonzero">
            <g id="Footer" transform="translate(0.000000, 3383.000000)">
                <g id="social-icons" transform="translate(1225.000000, 80.000000)">
                    <g id="twitter" transform="translate(30.000000, 0.000000)">
                        <path d="M14.746988,1.42790361 C14.2042169,1.66840964 13.6218313,1.83151807 13.0099277,1.90433735 C13.6347229,1.53019277 14.112988,0.936746988 14.3396627,0.231783133 C13.7535904,0.57826506 13.1066747,0.829855422 12.4173735,0.966240964 C11.8653976,0.37739759 11.0802651,0.010626506 10.2094217,0.010626506 C8.53872289,0.010626506 7.18409639,1.36525301 7.18409639,3.03503614 C7.18409639,3.27185542 7.21081928,3.50315663 7.26243373,3.72433735 C4.74855422,3.59807229 2.51942169,2.39366265 1.02749398,0.563518072 C0.766698795,1.00954217 0.618337349,1.52925301 0.618337349,2.0840241 C0.618337349,3.13363855 1.15281928,4.05975904 1.96375904,4.60159036 C1.4679759,4.58501205 1.00168675,4.44862651 0.59346988,4.22192771 L0.59346988,4.25971084 C0.59346988,5.72491566 1.63662651,6.94775904 3.01980723,7.22607229 C2.76638554,7.29426506 2.49915663,7.33204819 2.2226988,7.33204819 C2.0273494,7.33204819 1.83843373,7.3126988 1.65320482,7.27583133 C2.03838554,8.47840964 3.15527711,9.35291566 4.47857831,9.37689157 C3.44371084,10.1878313 2.13884337,10.6697831 0.721566265,10.6697831 C0.477373494,10.6697831 0.236843373,10.6550361 2.40963855e-05,10.6283133 C1.33898795,11.4880964 2.92860241,11.9893976 4.63708434,11.9893976 C10.2020964,11.9893976 13.2440241,7.3799759 13.2440241,3.38245783 L13.2338795,2.99081928 C13.828241,2.56689157 14.3424337,2.03426506 14.746988,1.42790361 Z" id="Shape"></path>
                    </g>
                </g>
            </g>
        </g>
    </g>
</svg>