<?xml version="1.0" encoding="utf-8"?>
<!-- Generator: Adobe Illustrator 22.1.0, SVG Export Plug-In . SVG Version: 6.00 Build 0)  -->
<svg version="1.1" id="Layer_1" xmlns="http://www.w3.org/2000/svg" xmlns:xlink="http://www.w3.org/1999/xlink" x="0px" y="0px"
	 viewBox="0 0 38.8 163.1" style="enable-background:new 0 0 38.8 163.1;" xml:space="preserve">
<style type="text/css">
	.st0{fill:#03FEB2;}
</style>
<title>space-language</title>
<path class="st0" d="M1,158.6v1.8h4.8v1.1H1v1.7H0.1v-4.6H1z"/>
<path class="st0" d="M3.3,152.4v2.3h1.6V152h0.9v3.8H0.1V152H1v2.7h1.4v-2.3H3.3z"/>
<path class="st0" d="M4.3,146.1c-0.1,0-0.2,0-0.3,0.1c-0.1,0-0.2,0.1-0.2,0.2c-0.1,0.1-0.2,0.2-0.2,0.3c-0.1,0.2-0.1,0.3-0.2,0.5
	c-0.1,0.2-0.1,0.5-0.2,0.7c-0.1,0.2-0.2,0.4-0.4,0.6c-0.1,0.2-0.3,0.3-0.5,0.4c-0.2,0.1-0.4,0.2-0.7,0.1c-0.2,0-0.5,0-0.7-0.1
	c-0.2-0.1-0.4-0.2-0.5-0.4s-0.2-0.4-0.3-0.6C0,147.6,0,147.4,0,147.1c0-0.3,0-0.6,0.1-0.8c0.1-0.2,0.2-0.4,0.4-0.6s0.3-0.3,0.6-0.4
	c0.2-0.1,0.5-0.2,0.7-0.1v1.1c-0.1,0-0.2,0-0.3,0.1c-0.1,0-0.2,0.1-0.3,0.2c-0.1,0.1-0.1,0.2-0.2,0.3c0,0.1-0.1,0.3-0.1,0.4
	c0,0.1,0,0.3,0,0.4s0.1,0.2,0.2,0.3c0.1,0.1,0.1,0.1,0.2,0.2c0.1,0,0.2,0.1,0.3,0.1s0.2,0,0.3-0.1s0.2-0.1,0.2-0.2
	c0.1-0.1,0.1-0.2,0.2-0.4c0.1-0.2,0.1-0.3,0.2-0.5c0.1-0.2,0.2-0.5,0.3-0.7c0.1-0.2,0.2-0.4,0.4-0.6c0.1-0.2,0.3-0.3,0.5-0.4
	c0.2-0.1,0.4-0.1,0.6-0.1c0.2,0,0.5,0,0.7,0.1c0.2,0.1,0.4,0.2,0.5,0.4s0.2,0.4,0.3,0.6c0.1,0.3,0.1,0.5,0.1,0.8c0,0.2,0,0.4,0,0.5
	c0,0.2-0.1,0.4-0.2,0.5c-0.1,0.2-0.1,0.3-0.2,0.4c-0.1,0.1-0.3,0.3-0.4,0.4c-0.1,0.1-0.3,0.2-0.5,0.2c-0.2,0.1-0.3,0.1-0.5,0.1v-1.1
	c0.2,0,0.3,0,0.5-0.1c0.1-0.1,0.2-0.1,0.3-0.2c0.1-0.1,0.1-0.2,0.2-0.4c0-0.1,0-0.3,0-0.5c0-0.1,0-0.3,0-0.4c0-0.1-0.1-0.2-0.1-0.3
	c-0.1-0.1-0.1-0.1-0.2-0.2C4.5,146.1,4.4,146.1,4.3,146.1z"/>
<path class="st0" d="M1,138v1.8h4.8v1.1H1v1.7H0.1V138H1z"/>
<path class="st0" d="M4.3,125.4c-0.1,0-0.2,0-0.3,0s-0.2,0.1-0.2,0.2c-0.1,0.1-0.2,0.2-0.2,0.3c-0.1,0.2-0.1,0.3-0.2,0.5
	c-0.1,0.3-0.1,0.5-0.2,0.7c-0.1,0.2-0.2,0.4-0.4,0.6c-0.1,0.2-0.3,0.3-0.5,0.4c-0.2,0.1-0.4,0.2-0.7,0.2c-0.2,0-0.5-0.1-0.7-0.2
	c-0.2-0.1-0.4-0.2-0.5-0.4s-0.2-0.4-0.3-0.6C0,126.8,0,126.6,0,126.3c0-0.3,0-0.5,0.1-0.8c0.1-0.2,0.2-0.4,0.4-0.6
	c0.2-0.2,0.3-0.3,0.6-0.4c0.2-0.1,0.5-0.2,0.7-0.2v1c-0.1,0-0.2,0-0.3,0.1c-0.1,0-0.2,0.1-0.3,0.2s-0.1,0.2-0.2,0.3
	c0,0.1-0.1,0.3-0.1,0.4c0,0.1,0,0.3,0,0.4c0,0.1,0.1,0.2,0.2,0.3c0.1,0.1,0.1,0.1,0.2,0.2c0.1,0,0.2,0.1,0.3,0.1s0.2,0,0.3-0.1
	c0.1-0.1,0.2-0.1,0.2-0.2c0.1-0.1,0.1-0.2,0.2-0.4c0.1-0.2,0.1-0.3,0.2-0.5c0.1-0.2,0.2-0.5,0.3-0.7c0.1-0.2,0.2-0.4,0.4-0.6
	c0.1-0.2,0.3-0.3,0.5-0.4c0.2-0.1,0.4-0.1,0.6-0.1c0.2,0,0.5,0,0.7,0.2c0.2,0.1,0.4,0.2,0.5,0.4s0.2,0.4,0.3,0.6
	c0.1,0.3,0.1,0.5,0.1,0.8c0,0.2,0,0.4,0,0.5c0,0.2-0.1,0.3-0.2,0.5c-0.1,0.2-0.1,0.3-0.2,0.5c-0.1,0.1-0.3,0.3-0.4,0.3
	c-0.1,0.1-0.3,0.2-0.5,0.2c-0.2,0.1-0.3,0.1-0.5,0.1v-1.1c0.2,0,0.3,0,0.5-0.1c0,0.1,0.1,0,0.2,0c0.1-0.1,0.1-0.2,0.2-0.3
	c0-0.2,0-0.3,0-0.5c0-0.1,0-0.3,0-0.4c0-0.1-0.1-0.2-0.1-0.3c-0.1-0.1-0.1-0.1-0.2-0.2C4.5,125.5,4.4,125.4,4.3,125.4z"/>
<path class="st0" d="M0.1,117.7h3.8c0.3,0,0.6,0,0.9,0.1c0.2,0.1,0.5,0.2,0.6,0.4c0.2,0.2,0.3,0.4,0.4,0.6c0.1,0.3,0.1,0.5,0.1,0.8
	c0,0.3,0,0.5-0.1,0.8c-0.1,0.2-0.2,0.4-0.4,0.6c-0.2,0.2-0.4,0.3-0.6,0.4c-0.3,0.1-0.6,0.1-0.9,0.1H0.1v-1.1h3.8
	c0.3,0,0.6-0.1,0.8-0.2c0.2-0.1,0.3-0.3,0.3-0.6c0-0.2-0.1-0.5-0.3-0.6c-0.2-0.2-0.5-0.2-0.8-0.2H0.1V117.7z"/>
<path class="st0" d="M5.8,114.6H0.1v-1.9c0-0.3,0-0.6,0.1-0.8c0-0.2,0.1-0.5,0.3-0.7c0.1-0.2,0.3-0.3,0.5-0.4s0.5-0.1,0.7-0.1
	c0.3,0,0.5,0.1,0.7,0.2c0.2,0.2,0.4,0.4,0.5,0.6c0-0.2,0.1-0.3,0.2-0.4c0.1-0.1,0.2-0.2,0.3-0.3s0.2-0.1,0.4-0.2
	c0.1,0,0.3-0.1,0.4-0.1c0.2,0,0.5,0,0.7,0.1c0.2,0.1,0.4,0.2,0.5,0.4c0.1,0.2,0.2,0.4,0.3,0.6c0.1,0.4,0.1,0.6,0.1,0.9V114.6z
	 M2.5,113.5v-0.8c0-0.2-0.1-0.5-0.2-0.7c-0.1-0.2-0.3-0.3-0.5-0.2c-0.2,0-0.4,0.1-0.6,0.2c-0.1,0.2-0.2,0.5-0.2,0.7v0.8H2.5z
	 M3.3,113.5h1.6v-1c0-0.2-0.1-0.5-0.2-0.7c-0.1-0.2-0.4-0.2-0.6-0.2c-0.2,0-0.4,0.1-0.6,0.2c-0.2,0.2-0.2,0.4-0.2,0.7V113.5z"/>
<path class="st0" d="M0.1,105.1V104H4c0.3,0,0.5,0.1,0.7,0.2c0.2,0.1,0.4,0.2,0.6,0.4c0.2,0.2,0.3,0.4,0.4,0.6
	c0.1,0.2,0.1,0.5,0.1,0.8s0,0.5-0.1,0.8c-0.1,0.2-0.2,0.4-0.3,0.6c-0.1,0.2-0.3,0.3-0.5,0.4c-0.2,0.1-0.5,0.2-0.8,0.2v-1.1
	c0.2,0,0.5-0.1,0.7-0.2c0.2-0.2,0.2-0.4,0.2-0.6c0-0.1,0-0.2-0.1-0.3c0-0.1-0.1-0.2-0.2-0.3c-0.1-0.1-0.2-0.1-0.3-0.2
	c-0.1,0-0.3-0.1-0.4-0.1H0.1V105.1z"/>
<path class="st0" d="M3.3,97.4v2.3h1.6V97h0.9v3.8H0.1V97H1v2.7h1.4v-2.3H3.3z"/>
<path class="st0" d="M4,90c0.3,0,0.5,0.1,0.8,0.2c0.2,0.1,0.4,0.2,0.6,0.4c0.2,0.2,0.3,0.4,0.4,0.6c0.1,0.3,0.1,0.5,0.1,0.8
	s-0.1,0.6-0.2,0.9c-0.1,0.3-0.3,0.5-0.5,0.7S4.7,93.9,4.4,94s-0.7,0.1-1,0.1H2.6c-0.3,0-0.7-0.1-1-0.2S1,93.7,0.8,93.5
	c-0.2-0.2-0.4-0.4-0.5-0.7c-0.1-0.3-0.2-0.6-0.2-0.9s0-0.6,0.1-0.9c0.1-0.2,0.2-0.4,0.4-0.6S1,90.1,1.2,90c0.3-0.1,0.5-0.2,0.8-0.2
	v1.1c-0.2,0-0.3,0.1-0.4,0.1c-0.1,0-0.2,0.1-0.3,0.2s-0.1,0.2-0.2,0.3c0,0.1-0.1,0.3-0.1,0.4c0,0.2,0,0.3,0.1,0.4s0.2,0.2,0.3,0.3
	c0.2,0.1,0.3,0.1,0.5,0.2c0.2,0,0.5,0.1,0.7,0.1h0.8c0.4,0,0.9-0.1,1.2-0.2C4.9,92.5,5,92.3,5,91.9c0-0.2-0.1-0.5-0.2-0.7
	C4.6,91,4.3,90.9,4,90.9C4,90.9,4,90,4,90z"/>
<path class="st0" d="M1,82.9v1.8h4.8v1.1H1v1.7H0.1v-4.6H1z"/>
<path class="st0" d="M0.1,71.8v-1.1l5.7-1.8v4.9L0.1,71.8z M4.9,72.3v-2l-3.3,1L4.9,72.3z"/>
<path class="st0" d="M0.1,58v-1.1l5.7-1.8V60L0.1,58z M4.9,58.5v-2l-3.3,1L4.9,58.5z"/>
<path class="st0" d="M0.1,44.3v-1.1l5.7-1.8v4.8L0.1,44.3z M4.9,44.8v-2l-3.3,1L4.9,44.8z"/>
<path class="st0" d="M0.1,30.5v-1.1l5.7-1.9v4.9L0.1,30.5z M4.9,31v-2l-3.3,1L4.9,31z"/>
<path class="st0" d="M0.1,16.8v-1.1l5.7-1.9v4.9L0.1,16.8z M4.9,17.2v-2l-3.3,1L4.9,17.2z"/>
<path class="st0" d="M0.1,3V1.9L5.8,0v4.9L0.1,3z M4.9,3.5v-2l-3.3,1L4.9,3.5z"/>
<path class="st0" d="M35.4,158.8c0.3,0,0.7,0,1,0.2c0.3,0,0.5,0.2,0.8,0.4c0.2,0.2,0.4,0.4,0.5,0.6c0.1,0.3,0.2,0.6,0.2,0.9
	s-0.1,0.6-0.2,0.9c-0.1,0.3-0.3,0.5-0.5,0.6c-0.2,0.2-0.5,0.3-0.8,0.4c-0.3,0.1-0.7,0.1-1,0.1h-0.8c-0.3,0-0.7,0-1-0.1
	c-0.3-0.1-0.6-0.2-0.8-0.4s-0.4-0.4-0.5-0.6c-0.2-0.3-0.3-0.6-0.3-0.9s0.1-0.6,0.2-0.9c0.1-0.2,0.3-0.4,0.5-0.6
	c0.3-0.2,0.5-0.4,0.8-0.4c0.3-0.1,0.7-0.2,1-0.2C34.5,158.8,35.4,158.8,35.4,158.8z M34.5,159.9c-0.2,0-0.4,0-0.6,0
	c-0.2,0.1-0.4,0.2-0.5,0.3c-0.1,0.1-0.3,0.2-0.4,0.3c-0.1,0.1-0.1,0.3-0.1,0.5s0,0.3,0.1,0.4c0.1,0.1,0.2,0.2,0.4,0.3
	c0.1,0,0.3,0.1,0.5,0.1c0.2,0,0.4,0,0.6,0h0.8c0.2,0,0.4,0,0.6,0c0.2,0,0.3-0.1,0.5-0.1c0.2-0.1,0.3-0.2,0.4-0.3
	c0.1-0.2,0.1-0.3,0.1-0.5s0-0.3-0.1-0.5c-0.1,0-0.2-0.1-0.3-0.2c-0.2-0.1-0.3-0.2-0.5-0.2s-0.4-0.1-0.6-0.1H34.5z"/>
<path class="st0" d="M37.8,155.9h-5.7V154c0-0.3,0-0.6,0.1-0.9c0.1-0.2,0.1-0.5,0.3-0.6c0.1-0.2,0.3-0.3,0.5-0.4
	c0.2-0.1,0.5-0.2,0.7-0.1c0.3,0,0.5,0.1,0.7,0.2c0.2,0.2,0.4,0.4,0.5,0.6c0-0.2,0.1-0.3,0.2-0.4c0.1-0.1,0.2-0.2,0.3-0.3
	c0.1-0.1,0.2-0.1,0.4-0.2c0.1,0,0.3-0.1,0.4-0.1c0.2,0,0.5,0,0.7,0.1c0.2,0.1,0.4,0.2,0.5,0.4c0.1,0.2,0.3,0.4,0.3,0.6
	c0.1,0.4,0.1,0.7,0.1,0.9V155.9z M34.5,154.8V154c0-0.2-0.1-0.5-0.2-0.7c-0.1-0.2-0.3-0.3-0.5-0.2c-0.2,0-0.4,0.1-0.6,0.2
	c-0.1,0.2-0.2,0.5-0.2,0.7v0.8H34.5z M35.3,154.8h1.6v-1c0-0.2-0.1-0.5-0.2-0.7c-0.1-0.2-0.4-0.2-0.6-0.2s-0.4,0.1-0.6,0.2
	c-0.2,0.2-0.2,0.4-0.2,0.7V154.8z"/>
<path class="st0" d="M32.1,146.3v-1.1H36c0.3,0,0.5,0,0.7,0.1c0.2,0.1,0.4,0.2,0.6,0.4s0.3,0.4,0.4,0.6c0.1,0.2,0.1,0.5,0.1,0.8
	c0,0.3,0,0.5-0.1,0.8c-0.1,0.2-0.2,0.4-0.3,0.6c-0.1,0.2-0.3,0.3-0.5,0.4c-0.2,0.1-0.5,0.1-0.8,0.1v-1.1c0.2,0,0.5-0.1,0.7-0.2
	s0.2-0.3,0.3-0.6c0-0.1,0-0.2-0.1-0.4c0-0.1-0.1-0.2-0.2-0.3c-0.1-0.1-0.2-0.1-0.3-0.2c-0.1,0-0.3-0.1-0.4-0.1L32.1,146.3z"/>
<path class="st0" d="M35.3,138.6v2.3h1.6v-2.7h0.9v3.8h-5.7v-3.8H33v2.7h1.5v-2.3H35.3z"/>
<path class="st0" d="M36,131.3c0.3,0,0.5,0.1,0.8,0.2c0.2,0.1,0.4,0.2,0.6,0.4c0.2,0.2,0.3,0.4,0.4,0.6c0.1,0.3,0.1,0.5,0.1,0.8
	c0,0.3-0.1,0.6-0.2,0.9c-0.1,0.3-0.3,0.5-0.5,0.7c-0.2,0.2-0.5,0.3-0.8,0.4c-0.3,0.1-0.7,0.1-1,0.1h-0.8c-0.3,0-0.7-0.1-1-0.1
	c-0.3-0.1-0.6-0.2-0.8-0.4s-0.4-0.4-0.5-0.7s-0.2-0.6-0.2-0.9c0-0.3,0-0.6,0.1-0.8c0.1-0.2,0.2-0.4,0.4-0.6c0.2-0.2,0.4-0.3,0.6-0.4
	c0.3-0.1,0.5-0.2,0.8-0.2v1.1c-0.1,0-0.3,0-0.4,0.1c-0.1,0-0.2,0.1-0.3,0.2c-0.1,0.1-0.1,0.2-0.2,0.3c0,0.1-0.1,0.3-0.1,0.4
	c0,0.2,0,0.3,0.1,0.4c0.1,0.1,0.2,0.2,0.3,0.3c0.2,0.1,0.4,0.2,0.5,0.2c0.2,0,0.5,0.1,0.7,0.1h0.8c0.4,0,0.9-0.1,1.2-0.2
	s0.4-0.4,0.4-0.7c0-0.2-0.1-0.5-0.2-0.7c-0.2-0.2-0.5-0.3-0.7-0.3L36,131.3z"/>
<path class="st0" d="M33,124.2v1.8h4.8v1.1H33v1.7h-0.9v-4.6H33z"/>
<path class="st0" d="M36.6,111.8v1.7l1.2,0.4v1.2l-5.7-1.9v-1l5.7-1.8v1.1L36.6,111.8z M35.7,113.3v-1.2l-2.1,0.6L35.7,113.3z"/>
<path class="st0" d="M36,103.8c0.3,0,0.5,0.1,0.8,0.2c0.2,0.1,0.4,0.2,0.6,0.4c0.2,0.2,0.3,0.4,0.4,0.6c0.1,0.3,0.1,0.5,0.1,0.8
	s-0.1,0.6-0.2,0.9c-0.1,0.3-0.3,0.5-0.5,0.7c-0.2,0.2-0.5,0.3-0.8,0.4c-0.3,0.1-0.7,0.1-1,0.1h-0.8c-0.3,0-0.7-0.1-1-0.2
	c-0.3-0.1-0.6-0.2-0.8-0.4s-0.4-0.4-0.5-0.7c-0.1-0.3-0.2-0.6-0.2-0.9s0-0.6,0.1-0.8c0.1-0.2,0.2-0.4,0.4-0.6
	c0.2-0.1,0.4-0.2,0.6-0.3c0.3-0.1,0.5-0.2,0.8-0.2v1.1c-0.1,0-0.3,0-0.4,0.1c-0.1,0-0.2,0.1-0.3,0.2c-0.1,0.1-0.2,0.2-0.2,0.3
	s-0.1,0.3-0.1,0.4c0,0.2,0,0.3,0.1,0.4c0.1,0.1,0.2,0.2,0.3,0.3c0.2,0.1,0.3,0.1,0.5,0.2c0.2,0,0.5,0.1,0.7,0.1h0.8
	c0.4,0,0.9-0.1,1.2-0.2c0.3-0.2,0.4-0.4,0.4-0.8c0-0.2-0.1-0.5-0.2-0.7c-0.2-0.2-0.5-0.3-0.8-0.3V103.8z"/>
<path class="st0" d="M35.5,96.9c0.3,0,0.7,0.1,1,0.2s0.6,0.3,0.8,0.5l0.8-1l0.7,0.7l-1,1.1c0,0.1,0,0.2,0.1,0.3V99
	c0,0.3-0.1,0.6-0.2,0.9c-0.1,0.2-0.3,0.5-0.5,0.7c-0.2,0.2-0.5,0.3-0.7,0.4c-0.3,0.1-0.6,0.1-0.9,0.1h-1c-0.3,0-0.7,0-1-0.1
	c-0.3-0.1-0.6-0.2-0.8-0.4c-0.2-0.2-0.4-0.4-0.5-0.7s-0.2-0.6-0.2-0.9s0.1-0.6,0.2-0.9s0.3-0.5,0.5-0.7s0.5-0.3,0.8-0.4
	s0.7-0.2,1-0.2L35.5,96.9z M34.5,98c-0.2,0-0.4,0-0.6,0c-0.2,0-0.4,0.1-0.5,0.2c-0.1,0.1-0.3,0.2-0.3,0.3C33,98.6,33,98.8,33,99
	s0,0.3,0.1,0.5c0.1,0.1,0.2,0.2,0.3,0.3c0.2,0.1,0.3,0.1,0.5,0.2c0.2,0,0.4,0,0.6,0h1c0.2,0,0.3,0,0.5,0s0.3-0.1,0.5-0.2
	c0.1-0.2,0.3-0.3,0.3-0.4c0.1-0.1,0.1-0.3,0.1-0.5c0-0.2,0-0.3-0.1-0.5c0,0-0.2-0.1-0.3-0.2c-0.1-0.1-0.3-0.1-0.5-0.2
	c-0.2,0-0.3,0-0.5,0H34.5z"/>
<path class="st0" d="M32.1,90.2h3.8c0.3,0,0.6,0,0.8,0.1c0.2,0.1,0.4,0.2,0.6,0.4c0.2,0.2,0.3,0.4,0.4,0.6c0.1,0.3,0.1,0.5,0.1,0.8
	s0,0.5-0.1,0.8c-0.1,0.2-0.2,0.4-0.4,0.6s-0.4,0.3-0.6,0.4C36.4,94,36.1,94,35.9,94h-3.8v-1.1h3.8c0.3,0,0.6-0.1,0.8-0.2
	c0.2-0.1,0.3-0.4,0.3-0.6s-0.1-0.5-0.3-0.6c-0.2-0.2-0.5-0.2-0.8-0.2h-3.8V90.2z"/>
<path class="st0" d="M32.1,86.9v-3.3H33v1.1h3.9v-1.1h0.9v3.3h-0.9v-1.1H33v1.1H32.1z"/>
<path class="st0" d="M35.7,78.3v0.8h2.1v1.1h-5.7v-1.9c0-0.3,0-0.6,0.1-0.9c0.1-0.2,0.2-0.5,0.3-0.7c0.1-0.2,0.3-0.3,0.5-0.4
	c0.3,0,0.6-0.1,0.8-0.1s0.4,0,0.5,0.1c0.2,0,0.3,0.1,0.4,0.2c0.1,0.1,0.2,0.2,0.3,0.3c0.1,0.1,0.2,0.3,0.2,0.4l2.3-1.2l0,0v1.2
	L35.7,78.3z M34.8,79.1v-0.8c0-0.3-0.1-0.5-0.2-0.7c-0.2-0.2-0.4-0.3-0.7-0.2c-0.2,0-0.5,0.1-0.7,0.2c-0.2,0.2-0.3,0.5-0.2,0.7v0.8
	H34.8z"/>
<path class="st0" d="M35.3,69.8v2.4h1.6v-2.7h0.9v3.8h-5.7v-3.8H33v2.7h1.5v-2.3L35.3,69.8z"/>
<path class="st0" d="M37.8,66.5h-5.7V65c0-0.3,0.1-0.7,0.2-1s0.3-0.6,0.5-0.8s0.5-0.4,0.8-0.5s0.7-0.2,1.1-0.2h0.5
	c0.4,0,0.7,0.1,1.1,0.2c0.3,0.1,0.6,0.3,0.8,0.5s0.4,0.5,0.5,0.8c0.1,0.3,0.2,0.7,0.2,1V66.5z M33,65.4h3.9V65c0-0.2,0-0.4-0.1-0.6
	s-0.2-0.3-0.3-0.4c-0.2-0.1-0.3-0.2-0.5-0.3c-0.2-0.1-0.5-0.1-0.7-0.1h-0.5c-0.2,0-0.5,0-0.7,0.1s-0.4,0.1-0.5,0.3
	c-0.1,0.1-0.3,0.3-0.3,0.4c-0.1,0.2-0.1,0.4-0.1,0.6L33,65.4z"/>
</svg>
