<?xml version="1.0" encoding="utf-8"?>
<!-- Generator: Adobe Illustrator 22.1.0, SVG Export Plug-In . SVG Version: 6.00 Build 0)  -->
<svg version="1.1" id="Layer_1" xmlns="http://www.w3.org/2000/svg" xmlns:xlink="http://www.w3.org/1999/xlink" x="0px" y="0px"
	 viewBox="0 0 55.5 197" style="enable-background:new 0 0 55.5 197;" xml:space="preserve">
<style type="text/css">
	.st0{fill:#FE036A;}
</style>
<title>space-language</title>
<path class="st0" d="M50.7,1.1v2.7h-0.9V0h5.7v1.1H50.7z"/>
<path class="st0" d="M52.2,10.8c-0.3,0-0.7,0-1-0.1c-0.3-0.1-0.6-0.2-0.8-0.4c-0.2-0.2-0.4-0.4-0.5-0.7c-0.1-0.3-0.2-0.6-0.2-0.9
	c0-0.3,0.1-0.6,0.2-0.9c0.1-0.3,0.3-0.5,0.5-0.7C50.7,7,51,6.8,51.2,6.8c0.3-0.1,0.7-0.1,1-0.1h0.8c0.3,0,0.7,0,1,0.1
	c0.3,0.1,0.6,0.2,0.8,0.4c0.2,0.2,0.4,0.4,0.5,0.7c0.1,0.3,0.2,0.6,0.2,0.9c0,0.3-0.1,0.6-0.2,0.9c-0.1,0.3-0.3,0.5-0.5,0.7
	c-0.2,0.2-0.5,0.3-0.8,0.4c-0.3,0.1-0.7,0.2-1,0.1H52.2z M53.1,9.7c0.2,0,0.4,0,0.6-0.1c0.2,0,0.4-0.1,0.5-0.2
	c0.1-0.1,0.3-0.2,0.4-0.3c0.1-0.1,0.1-0.3,0.1-0.5c0-0.2,0-0.3-0.1-0.4c-0.1-0.1-0.2-0.2-0.3-0.3c-0.2-0.1-0.3-0.1-0.5-0.2
	c-0.2,0-0.4,0-0.6,0h-0.8c-0.2,0-0.4,0-0.6,0c-0.2,0-0.3,0.1-0.5,0.2C51,8,50.9,8.1,50.8,8.2c-0.1,0.1-0.2,0.3-0.2,0.4
	c0,0.2,0,0.3,0.1,0.5c0.1,0.1,0.2,0.2,0.3,0.3c0.2,0.1,0.4,0.1,0.5,0.2c0.2,0,0.4,0.1,0.6,0.1L53.1,9.7z"/>
<path class="st0" d="M51.6,17.7c-0.3,0-0.5-0.1-0.8-0.2c-0.2-0.1-0.4-0.2-0.6-0.4c-0.2-0.2-0.3-0.4-0.4-0.6
	c-0.1-0.3-0.1-0.5-0.1-0.8c0-0.3,0.1-0.6,0.2-0.9c0.1-0.3,0.3-0.5,0.5-0.7c0.2-0.2,0.5-0.3,0.8-0.4c0.3-0.1,0.7-0.1,1-0.1H53
	c0.3,0,0.7,0.1,1,0.1c0.3,0.1,0.6,0.2,0.8,0.4c0.2,0.2,0.4,0.4,0.5,0.7c0.1,0.3,0.2,0.6,0.2,0.9c0,0.3,0,0.6-0.1,0.8
	c-0.1,0.2-0.2,0.4-0.4,0.6c-0.2,0.2-0.4,0.3-0.6,0.4c-0.3,0.1-0.5,0.2-0.8,0.2v-1.1c0.1,0,0.3,0,0.4-0.1c0.1,0,0.2-0.1,0.3-0.2
	c0.1-0.1,0.1-0.2,0.2-0.3c0-0.1,0.1-0.3,0.1-0.4c0-0.3-0.2-0.6-0.4-0.8c-0.2-0.1-0.3-0.1-0.5-0.2c-0.2,0-0.5-0.1-0.7-0.1h-0.8
	c-0.4,0-0.9,0.1-1.2,0.2c-0.3,0.2-0.4,0.4-0.4,0.8c0,0.2,0.1,0.5,0.2,0.7c0.2,0.2,0.5,0.3,0.8,0.3V17.7z"/>
<path class="st0" d="M51,23.4v-1.7l-1.2-0.3v-1.1l5.7,1.8v1l-5.7,1.8v-1.1L51,23.4z M51.9,21.9v1.2l2.1-0.6L51.9,21.9z"/>
<path class="st0" d="M54.6,31.6v-1.8h-4.8v-1.1h4.8V27h0.9v4.6L54.6,31.6z"/>
<path class="st0" d="M55.5,34.6v3.3h-0.9v-1.1h-3.9v1.1h-0.9v-3.3h0.9v1.1h3.9v-1.1H55.5z"/>
<path class="st0" d="M52.2,45.2c-0.3,0-0.7,0-1-0.2c-0.3-0.1-0.6-0.2-0.8-0.4c-0.2-0.2-0.4-0.4-0.5-0.7c-0.1-0.3-0.2-0.6-0.2-0.9
	c0-0.3,0.1-0.6,0.2-0.9c0.1-0.3,0.3-0.5,0.5-0.6c0.2-0.2,0.5-0.3,0.8-0.4c0.3-0.1,0.7-0.1,1-0.1h0.8c0.3,0,0.7,0,1,0.1
	c0.3,0.1,0.6,0.2,0.8,0.4c0.2,0.2,0.4,0.4,0.5,0.6c0.1,0.3,0.2,0.6,0.2,0.9c0,0.6-0.3,1.2-0.7,1.6c-0.2,0.2-0.5,0.3-0.8,0.4
	c-0.3,0.1-0.7,0.2-1,0.2L52.2,45.2z M53.1,44.1c0.2,0,0.4,0,0.6-0.1c0.2,0,0.4-0.1,0.5-0.2c0.1-0.1,0.3-0.2,0.4-0.3
	c0.1-0.1,0.1-0.3,0.1-0.5c0-0.2,0-0.3-0.1-0.4c-0.1-0.1-0.2-0.2-0.3-0.3c-0.2-0.1-0.3-0.1-0.5-0.2c-0.2,0-0.4,0-0.6,0h-0.8
	c-0.2,0-0.4,0-0.6,0c-0.2,0-0.4,0.1-0.5,0.2c-0.1,0.1-0.2,0.2-0.3,0.3c-0.1,0.1-0.1,0.3-0.1,0.5c0,0.2,0,0.3,0.1,0.5
	c0.1,0.1,0.2,0.2,0.3,0.3c0.1,0.1,0.3,0.1,0.5,0.2c0.2,0,0.4,0.1,0.6,0.1L53.1,44.1z"/>
<path class="st0" d="M49.8,51.9v-1.1l3.7-1.6h-3.7v-1.1h5.7v1.1l-3.6,1.6h3.6v1.1H49.8z"/>
<path class="st0" d="M55.5,63.4v1.1l-5.7,1.8v-4.9L55.5,63.4z M50.7,62.9v2l3.3-1L50.7,62.9z"/>
<path class="st0" d="M55.5,77.2v1.1l-5.7,1.8v-4.9L55.5,77.2z M50.7,76.7v2l3.3-1L50.7,76.7z"/>
<path class="st0" d="M55.5,90.9V92l-5.7,1.8V89L55.5,90.9z M50.7,90.4v2l3.3-1L50.7,90.4z"/>
<path class="st0" d="M55.5,104.7v1.1l-5.7,1.8v-4.9L55.5,104.7z M50.7,104.2v2l3.3-1L50.7,104.2z"/>
<path class="st0" d="M52,120.7c-0.3,0-0.7,0-1-0.1c-0.3-0.1-0.5-0.2-0.7-0.4c-0.2-0.2-0.3-0.4-0.4-0.6c-0.2-0.5-0.2-1.1,0-1.6
	c0.1-0.2,0.2-0.4,0.4-0.6c0.2-0.2,0.4-0.3,0.7-0.4c0.3-0.1,0.7-0.1,1-0.1h1.4c0.3,0,0.7,0,1,0.1c0.3,0.1,0.5,0.2,0.7,0.4
	c0.2,0.2,0.3,0.3,0.4,0.6c0.1,0.2,0.1,0.5,0.1,0.8c0,0.3,0,0.5-0.1,0.8c-0.1,0.2-0.2,0.4-0.4,0.6c-0.2,0.2-0.4,0.3-0.7,0.4
	c-0.3,0.1-0.7,0.1-1,0.1L52,120.7z M52.4,118l1.1,1.6c0.3,0,0.6-0.1,0.8-0.2c0.3-0.2,0.4-0.7,0.2-1c0-0.1-0.1-0.1-0.2-0.2
	c-0.3-0.1-0.6-0.2-0.9-0.2L52.4,118z M52.8,119.5l-1.1-1.5c-0.3,0-0.6,0.1-0.8,0.2c-0.2,0.1-0.3,0.3-0.3,0.6c0,0.2,0.1,0.5,0.3,0.6
	c0.3,0.1,0.6,0.2,0.9,0.2L52.8,119.5z"/>
<path class="st0" d="M52,127.5c-0.3,0-0.7,0-1-0.1c-0.3-0.1-0.5-0.2-0.7-0.4c-0.2-0.2-0.3-0.4-0.4-0.6c-0.1-0.2-0.1-0.5-0.1-0.8
	c0-0.3,0-0.5,0.1-0.8c0.1-0.2,0.2-0.4,0.4-0.6c0.2-0.2,0.4-0.3,0.7-0.4c0.3-0.1,0.7-0.1,1-0.1h1.4c0.3,0,0.7,0,1,0.1
	c0.3,0.1,0.5,0.2,0.7,0.4c0.2,0.2,0.3,0.4,0.4,0.6c0.1,0.2,0.1,0.5,0.1,0.8c0,0.3,0,0.5-0.1,0.8c-0.1,0.2-0.2,0.4-0.4,0.6
	c-0.2,0.2-0.4,0.3-0.7,0.4c-0.3,0.1-0.7,0.1-1,0.1L52,127.5z M52.4,124.9l1.1,1.5c0.3,0,0.6-0.1,0.8-0.2c0.2-0.1,0.3-0.3,0.3-0.6
	c0-0.2-0.1-0.4-0.3-0.6c-0.3-0.1-0.6-0.2-0.9-0.2L52.4,124.9z M52.8,126.4l-1.1-1.5c-0.3,0-0.6,0.1-0.8,0.2
	c-0.2,0.1-0.3,0.3-0.3,0.6c0,0.2,0.1,0.5,0.3,0.6c0.3,0.1,0.6,0.2,0.9,0.2L52.8,126.4z"/>
<path class="st0" d="M50.4,131.8c0.1,0,0.2,0,0.3,0c0.1,0,0.2,0.1,0.2,0.1c0.1,0.1,0.1,0.1,0.2,0.2c0.1,0.2,0.1,0.4,0,0.6
	c0,0.1-0.1,0.2-0.2,0.2c-0.1,0.1-0.1,0.1-0.2,0.1c-0.1,0-0.2,0.1-0.3,0.1c-0.1,0-0.2,0-0.3-0.1c-0.1,0-0.2-0.1-0.2-0.1
	c-0.1-0.1-0.1-0.1-0.2-0.2c-0.1-0.2-0.1-0.4,0-0.6c0-0.1,0.1-0.2,0.2-0.2c0.1-0.1,0.1-0.1,0.2-0.1C50.3,131.8,50.3,131.8,50.4,131.8
	z"/>
<path class="st0" d="M49.8,140.3v-1.1h4.4l-0.5-1.4h0.9l0.9,2.5v0.1H49.8z"/>
<path class="st0" d="M50.7,145.2c0,0.3,0,0.5,0.1,0.8c0,0.2,0.1,0.4,0.3,0.5c0.1,0.1,0.3,0.3,0.4,0.3c0.2,0.1,0.4,0.1,0.6,0.1
	c-0.3-0.3-0.4-0.6-0.4-1c0-0.2,0-0.5,0.1-0.7c0.1-0.2,0.2-0.4,0.4-0.5c0.2-0.1,0.4-0.2,0.6-0.3c0.2-0.1,0.5-0.1,0.8-0.1
	c0.3,0,0.5,0,0.8,0.1c0.2,0.1,0.5,0.2,0.6,0.4c0.2,0.2,0.3,0.4,0.4,0.6c0.1,0.2,0.2,0.5,0.2,0.8c0,0.3-0.1,0.6-0.2,0.8
	c-0.1,0.2-0.3,0.4-0.5,0.6c-0.2,0.2-0.5,0.3-0.7,0.4c-0.3,0.1-0.6,0.1-0.9,0.1h-0.4c-0.4,0-0.9-0.1-1.3-0.2c-0.4-0.1-0.7-0.3-1-0.5
	c-0.3-0.2-0.5-0.6-0.6-0.9c-0.2-0.4-0.3-0.9-0.2-1.3v-0.1L50.7,145.2L50.7,145.2z M52.5,146.2c0,0.1,0,0.2,0,0.3
	c0,0.1,0.1,0.2,0.1,0.2c0,0.1,0.1,0.1,0.2,0.2c0.1,0,0.1,0.1,0.2,0.1h0.4c0.2,0,0.4,0,0.5-0.1c0.1,0,0.3-0.1,0.4-0.2
	c0.1-0.1,0.2-0.2,0.2-0.3c0.1-0.1,0.1-0.2,0.1-0.3c0-0.1,0-0.2-0.1-0.4c-0.1-0.1-0.2-0.2-0.2-0.2c-0.1-0.1-0.2-0.1-0.4-0.1
	c-0.1,0-0.3-0.1-0.4-0.1c-0.1,0-0.3,0-0.4,0c-0.1,0-0.2,0.1-0.4,0.2c-0.1,0.1-0.2,0.2-0.2,0.3C52.5,145.9,52.5,146.1,52.5,146.2
	L52.5,146.2z"/>
<path class="st0" d="M54,154.9c-0.3,0-0.5-0.1-0.7-0.2c-0.2-0.1-0.4-0.3-0.5-0.6c-0.1,0.3-0.3,0.5-0.5,0.7c-0.2,0.2-0.5,0.2-0.8,0.2
	c-0.2,0-0.5,0-0.7-0.1c-0.2-0.1-0.4-0.2-0.5-0.4c-0.1-0.2-0.2-0.4-0.3-0.6c-0.1-0.5-0.1-1,0-1.5c0.1-0.2,0.2-0.4,0.3-0.6
	c0.1-0.2,0.3-0.3,0.5-0.4c0.2-0.1,0.5-0.1,0.7-0.1c0.1,0,0.3,0,0.4,0.1c0.1,0,0.3,0.1,0.4,0.2c0.1,0.1,0.2,0.2,0.3,0.3
	c0.1,0.1,0.2,0.2,0.2,0.4c0.1-0.2,0.3-0.4,0.5-0.6c0.2-0.1,0.5-0.2,0.7-0.2c0.2,0,0.5,0,0.7,0.1c0.2,0.1,0.4,0.2,0.5,0.4
	c0.1,0.2,0.2,0.4,0.3,0.6c0.1,0.5,0.1,1,0,1.4c-0.1,0.2-0.2,0.4-0.3,0.6c-0.1,0.2-0.3,0.3-0.5,0.4C54.5,154.9,54.2,154.9,54,154.9z
	 M51.4,153.9c0.1,0,0.2,0,0.3-0.1c0.1,0,0.2-0.1,0.3-0.2c0.1-0.1,0.1-0.2,0.2-0.3c0-0.1,0.1-0.2,0.1-0.3c0-0.1,0-0.2-0.1-0.3
	c0-0.1-0.1-0.2-0.2-0.3c-0.1-0.1-0.2-0.1-0.3-0.2c-0.1,0-0.2-0.1-0.3-0.1c-0.2,0-0.4,0.1-0.6,0.2c-0.2,0.2-0.2,0.4-0.2,0.6
	c0,0.1,0,0.2,0.1,0.3c0,0.1,0.1,0.2,0.2,0.2c0.1,0.1,0.2,0.1,0.3,0.2C51.2,153.9,51.3,154,51.4,153.9L51.4,153.9z M53.9,153.8
	c0.1,0,0.2,0,0.3-0.1c0.1,0,0.2-0.1,0.2-0.1c0.1-0.1,0.1-0.1,0.1-0.2c0-0.1,0.1-0.2,0.1-0.3c0-0.2-0.1-0.4-0.2-0.5
	c-0.2-0.1-0.4-0.2-0.5-0.2c-0.1,0-0.2,0-0.3,0c-0.1,0-0.2,0.1-0.2,0.1c-0.1,0.1-0.1,0.1-0.2,0.2c-0.1,0.2-0.1,0.4,0,0.6
	c0,0.1,0.1,0.2,0.2,0.2c0.1,0.1,0.2,0.1,0.2,0.1C53.7,153.8,53.8,153.8,53.9,153.8L53.9,153.8z"/>
<path class="st0" d="M49.8,162v-3.9h0.8l2,1.8c0.2,0.1,0.3,0.3,0.4,0.4l0.3,0.2c0.1,0.1,0.2,0.1,0.3,0.1c0.1,0,0.2,0,0.3,0
	c0.1,0,0.2,0,0.3-0.1c0.1,0,0.2-0.1,0.3-0.1c0.1-0.1,0.1-0.1,0.2-0.2c0-0.1,0-0.2,0-0.3c0-0.2-0.1-0.5-0.2-0.7
	c-0.2-0.2-0.4-0.2-0.7-0.2v-1c0.2,0,0.5,0,0.7,0.1c0.2,0.1,0.4,0.2,0.6,0.4c0.2,0.2,0.3,0.4,0.4,0.6c0.1,0.3,0.2,0.5,0.2,0.8
	c0,0.3,0,0.5-0.1,0.8c-0.1,0.2-0.2,0.4-0.3,0.6c-0.2,0.1-0.3,0.3-0.5,0.3c-0.2,0.1-0.4,0.1-0.7,0.1c-0.2,0-0.4,0-0.5-0.1
	c-0.2-0.1-0.3-0.1-0.5-0.2c-0.2-0.1-0.3-0.2-0.5-0.4l-0.5-0.5l-1.1-1.1v2.5H49.8z"/>
<path class="st0" d="M49.8,167.8v-1.1h4.4l-0.5-1.4h0.9l0.9,2.5l0,0L49.8,167.8z"/>
<path class="st0" d="M55.6,174.9h-0.9v-0.1c0-0.3,0-0.5-0.1-0.8c-0.1-0.2-0.2-0.4-0.3-0.6c-0.1-0.2-0.3-0.3-0.5-0.4
	c-0.2-0.1-0.4-0.2-0.6-0.2c0.1,0.1,0.3,0.3,0.4,0.5c0.1,0.1,0.1,0.2,0.1,0.3c0.1,0.4,0,0.7-0.1,1.1c-0.1,0.2-0.2,0.4-0.4,0.5
	c-0.2,0.1-0.4,0.2-0.6,0.3c-0.2,0.1-0.5,0.1-0.7,0.1c-0.3,0-0.5,0-0.8-0.1c-0.2-0.1-0.4-0.2-0.6-0.4c-0.2-0.2-0.3-0.4-0.4-0.6
	c-0.1-0.3-0.2-0.5-0.2-0.8c0-0.3,0.1-0.6,0.2-0.8c0.1-0.2,0.3-0.4,0.5-0.6c0.2-0.2,0.5-0.3,0.7-0.4c0.3-0.1,0.6-0.1,0.9-0.1h0.4
	c0.4,0,0.9,0,1.3,0.2c0.4,0.1,0.7,0.3,1,0.5c0.3,0.3,0.5,0.6,0.7,0.9c0.2,0.4,0.3,0.8,0.3,1.3V174.9z M52.8,173.8
	c0-0.2,0-0.4-0.2-0.5c-0.1-0.1-0.2-0.3-0.4-0.3h-0.3c-0.2,0-0.4,0-0.5,0.1c-0.1,0-0.3,0.1-0.4,0.2c-0.1,0.1-0.2,0.2-0.2,0.3
	c-0.1,0.1-0.1,0.2-0.1,0.3c0,0.1,0,0.2,0.1,0.4c0,0.1,0.1,0.2,0.2,0.3c0.1,0.1,0.2,0.1,0.3,0.2c0.1,0,0.3,0,0.4,0c0.1,0,0.3,0,0.4,0
	c0.1,0,0.2-0.1,0.3-0.2c0.1-0.1,0.2-0.2,0.2-0.3C52.7,174.1,52.7,173.9,52.8,173.8L52.8,173.8z"/>
<path class="st0" d="M50.4,180c0.1,0,0.2,0,0.3,0c0.1,0,0.2,0.1,0.2,0.1c0.1,0.1,0.1,0.2,0.2,0.2c0,0.1,0.1,0.2,0.1,0.3
	c0,0.1,0,0.2-0.1,0.3c0,0.1-0.1,0.2-0.2,0.2c-0.1,0.1-0.1,0.1-0.2,0.1c-0.1,0-0.2,0-0.3,0.1c-0.1,0-0.2,0-0.3-0.1
	c-0.1,0-0.2-0.1-0.2-0.1c-0.1-0.1-0.1-0.1-0.2-0.2c0-0.1-0.1-0.2-0.1-0.3c0-0.1,0-0.2,0.1-0.3c0-0.1,0.1-0.2,0.2-0.2
	c0.1-0.1,0.1-0.1,0.2-0.1C50.3,180,50.3,180,50.4,180z"/>
<path class="st0" d="M52,189.5c-0.3,0-0.7,0-1-0.1c-0.3-0.1-0.5-0.2-0.7-0.4c-0.2-0.2-0.3-0.4-0.4-0.6c-0.2-0.5-0.2-1.1,0-1.6
	c0.1-0.2,0.2-0.4,0.4-0.6c0.2-0.2,0.4-0.3,0.7-0.4c0.3-0.1,0.7-0.1,1-0.1h1.4c0.3,0,0.7,0,1,0.1c0.3,0.1,0.5,0.2,0.7,0.4
	c0.2,0.2,0.3,0.4,0.4,0.6c0.1,0.2,0.1,0.5,0.1,0.8c0,0.3,0,0.5-0.1,0.8c-0.1,0.2-0.2,0.4-0.4,0.6c-0.2,0.2-0.5,0.3-0.7,0.4
	c-0.3,0.1-0.7,0.1-1,0.1L52,189.5z M52.4,186.9l1.1,1.5c0.3,0,0.6-0.1,0.8-0.2c0.2-0.1,0.3-0.3,0.3-0.6c0-0.2-0.1-0.4-0.3-0.6
	c-0.3-0.1-0.6-0.2-0.9-0.2H52.4z M52.8,188.4l-1.1-1.5c-0.3,0-0.6,0.1-0.8,0.2c-0.2,0.1-0.3,0.3-0.3,0.6c0,0.2,0.1,0.5,0.3,0.6
	c0.3,0.1,0.6,0.2,0.9,0.2L52.8,188.4z"/>
<path class="st0" d="M55.6,195.5h-0.9v-0.1c0-0.3,0-0.5-0.1-0.8c-0.1-0.2-0.2-0.4-0.3-0.6c-0.1-0.2-0.3-0.3-0.5-0.4
	c-0.2-0.1-0.4-0.2-0.6-0.2l0.2,0.2c0.1,0.1,0.1,0.2,0.2,0.3c0.1,0.1,0.1,0.2,0.1,0.3c0,0.1,0,0.2,0,0.4c0,0.2,0,0.5-0.2,0.7
	c-0.1,0.2-0.2,0.4-0.4,0.5c-0.2,0.1-0.4,0.2-0.6,0.3c-0.2,0.1-0.5,0.1-0.7,0.1c-0.3,0-0.5,0-0.8-0.1c-0.2-0.1-0.4-0.2-0.6-0.4
	c-0.2-0.2-0.3-0.4-0.4-0.6c-0.2-0.5-0.2-1.1,0-1.6c0.1-0.2,0.3-0.4,0.5-0.6c0.2-0.2,0.5-0.3,0.7-0.4c0.3-0.1,0.6-0.1,0.9-0.1h0.4
	c0.4,0,0.9,0.1,1.3,0.2c0.4,0.1,0.7,0.3,1,0.6c0.3,0.2,0.5,0.6,0.7,0.9c0.2,0.4,0.3,0.8,0.3,1.2V195.5z M52.8,194.4
	c0-0.2,0-0.4-0.2-0.5c-0.1-0.1-0.2-0.3-0.4-0.3h-0.3c-0.2,0-0.4,0-0.5,0.1c-0.1,0-0.3,0.1-0.4,0.2c-0.1,0.1-0.2,0.2-0.2,0.3
	c-0.1,0.1-0.1,0.2-0.1,0.4c0,0.1,0,0.2,0.1,0.3c0,0.1,0.1,0.2,0.2,0.3c0.1,0.1,0.2,0.1,0.3,0.2c0.1,0,0.3,0.1,0.4,0.1
	c0.1,0,0.3,0,0.4-0.1c0.1,0,0.2-0.1,0.3-0.2c0.1-0.1,0.2-0.2,0.2-0.3C52.7,194.7,52.7,194.6,52.8,194.4L52.8,194.4z"/>
<path class="st0" d="M19.6,107.1c-0.3,0-0.5-0.1-0.8-0.2c-0.2-0.1-0.4-0.2-0.6-0.4c-0.2-0.2-0.3-0.4-0.4-0.6
	c-0.1-0.3-0.1-0.5-0.1-0.8c0-0.3,0.1-0.6,0.2-0.9c0.1-0.3,0.3-0.5,0.5-0.7c0.2-0.2,0.5-0.3,0.8-0.4c0.3-0.1,0.7-0.2,1-0.2H21
	c0.3,0,0.7,0.1,1,0.2c0.3,0.1,0.6,0.2,0.8,0.4c0.2,0.2,0.4,0.4,0.5,0.7c0.2,0.3,0.2,0.5,0.3,0.8c0,0.3,0,0.6-0.1,0.8
	c-0.1,0.2-0.2,0.4-0.4,0.6c-0.2,0.2-0.4,0.3-0.6,0.4c-0.3,0.1-0.5,0.2-0.8,0.2V106c0.1,0,0.3,0,0.4-0.1c0.1,0,0.2-0.1,0.3-0.2
	c0.1-0.1,0.1-0.2,0.2-0.3c0-0.1,0.1-0.3,0.1-0.4c0-0.3-0.2-0.6-0.4-0.8c-0.2-0.1-0.3-0.1-0.5-0.2c-0.2,0-0.5-0.1-0.7-0.1h-0.8
	c-0.4,0-0.9,0.1-1.2,0.2c-0.3,0.1-0.4,0.4-0.4,0.7c0,0.2,0.1,0.5,0.2,0.7c0.2,0.2,0.5,0.3,0.8,0.3V107.1z"/>
<path class="st0" d="M20.2,114c-0.3,0-0.7,0-1-0.2c-0.3-0.1-0.6-0.2-0.8-0.4c-0.2-0.2-0.4-0.4-0.5-0.7c-0.1-0.3-0.2-0.6-0.2-0.9
	c0-0.3,0.1-0.6,0.2-0.9c0.1-0.3,0.3-0.5,0.5-0.7c0.2-0.2,0.5-0.3,0.8-0.4c0.3-0.1,0.7-0.1,1-0.1h0.8c0.3,0,0.7,0,1,0.1
	c0.3,0.1,0.6,0.2,0.8,0.4c0.2,0.2,0.4,0.4,0.5,0.7c0.1,0.3,0.2,0.6,0.2,0.9c0,0.3-0.1,0.6-0.2,0.9c-0.1,0.3-0.3,0.5-0.5,0.7
	c-0.2,0.2-0.5,0.3-0.8,0.4c-0.3,0.1-0.7,0.2-1,0.2H20.2z M21.1,112.9c0.2,0,0.4,0,0.6-0.1c0.2,0,0.4-0.1,0.5-0.2
	c0.1-0.1,0.2-0.2,0.3-0.3c0.1-0.1,0.1-0.3,0.1-0.5c0-0.2,0-0.3-0.1-0.4c-0.1-0.1-0.2-0.2-0.3-0.3c-0.2-0.1-0.3-0.1-0.5-0.2
	c-0.2,0-0.4,0-0.6,0h-0.8c-0.2,0-0.4,0-0.6,0c-0.2,0-0.4,0.1-0.5,0.2c-0.1,0.1-0.2,0.2-0.3,0.3c-0.1,0.1-0.1,0.3-0.1,0.4
	c0,0.2,0,0.3,0.1,0.5c0.1,0.1,0.2,0.2,0.3,0.3c0.2,0.1,0.3,0.1,0.5,0.2c0.2,0,0.4,0.1,0.6,0.1H21.1z"/>
<path class="st0" d="M17.8,120.7v-1.1l3.7-1.6h-3.7v-1.1h5.7v1.1l-3.7,1.6h3.7v1.1L17.8,120.7z"/>
<path class="st0" d="M17.8,127.5v-1.1l3.7-1.6h-3.7v-1.1h5.7v1.1l-3.7,1.6h3.7v1.1L17.8,127.5z"/>
<path class="st0" d="M20.3,134.2v-2.3h-1.6v2.7h-0.9v-3.8h5.7v3.8h-0.9v-2.7h-1.4v2.3H20.3z"/>
<path class="st0" d="M19.6,141.5c-0.3,0-0.5-0.1-0.8-0.2c-0.2-0.1-0.4-0.2-0.6-0.4c-0.2-0.2-0.3-0.4-0.4-0.6
	c-0.1-0.3-0.1-0.5-0.1-0.8c0-0.3,0.1-0.6,0.2-0.9c0.1-0.3,0.3-0.5,0.5-0.6c0.2-0.2,0.5-0.3,0.8-0.4c0.3-0.1,0.7-0.1,1-0.1H21
	c0.3,0,0.7,0.1,1,0.1c0.3,0.1,0.6,0.2,0.8,0.4c0.2,0.2,0.4,0.4,0.5,0.7c0.1,0.3,0.2,0.6,0.2,0.9c0,0.3,0,0.6-0.1,0.8
	c-0.1,0.2-0.2,0.4-0.4,0.6c-0.2,0.2-0.4,0.3-0.6,0.4c-0.3,0.1-0.5,0.2-0.8,0.2v-1.1c0.1,0,0.3,0,0.4-0.1c0.1,0,0.2-0.1,0.3-0.2
	c0.1-0.1,0.2-0.2,0.2-0.3c0-0.1,0.1-0.3,0.1-0.4c0-0.1,0-0.3,0-0.4c-0.1-0.1-0.2-0.2-0.3-0.3c-0.2-0.1-0.3-0.1-0.5-0.2
	c-0.2,0-0.5-0.1-0.7-0.1h-0.8c-0.4,0-0.9,0.1-1.2,0.2c-0.3,0.2-0.4,0.4-0.4,0.8c0,0.2,0.1,0.5,0.2,0.7c0.2,0.2,0.5,0.3,0.7,0.3
	L19.6,141.5z"/>
<path class="st0" d="M22.6,148.6v-1.8h-4.8v-1.1h4.8V144h0.9v4.6L22.6,148.6z"/>
<path class="st0" d="M23.5,151.6v3.3h-0.9v-1.1h-3.9v1.1h-0.9v-3.3h0.9v1.1h3.9v-1.1H23.5z"/>
<path class="st0" d="M20.2,162.2c-0.3,0-0.7,0-1-0.1c-0.3-0.1-0.6-0.2-0.8-0.4c-0.2-0.2-0.4-0.4-0.5-0.7c-0.3-0.6-0.3-1.2,0-1.8
	c0.1-0.3,0.3-0.5,0.5-0.6c0.2-0.2,0.5-0.3,0.8-0.4c0.3-0.1,0.7-0.1,1-0.1h0.8c0.3,0,0.7,0,1,0.1c0.3,0.1,0.6,0.2,0.8,0.4
	c0.2,0.2,0.4,0.4,0.5,0.6c0.3,0.6,0.3,1.2,0,1.8c-0.1,0.3-0.3,0.5-0.5,0.7c-0.2,0.2-0.5,0.3-0.8,0.4c-0.3,0.1-0.7,0.1-1,0.1H20.2z
	 M21.1,161c0.2,0,0.4,0,0.6-0.1c0.2,0,0.4-0.1,0.5-0.2c0.1-0.1,0.2-0.2,0.3-0.3c0.1-0.1,0.1-0.3,0.1-0.4c0-0.2,0-0.3-0.1-0.4
	c-0.1-0.1-0.2-0.2-0.3-0.3c-0.2-0.1-0.3-0.1-0.5-0.2c-0.2,0-0.4,0-0.6,0h-0.8c-0.2,0-0.4,0-0.6,0c-0.2,0-0.3,0.1-0.5,0.2
	c-0.1,0.1-0.2,0.2-0.3,0.3c-0.2,0.3-0.2,0.6,0,0.9c0.1,0.1,0.2,0.2,0.3,0.3c0.1,0.1,0.3,0.2,0.5,0.2c0.2,0,0.4,0.1,0.6,0.1L21.1,161
	z"/>
<path class="st0" d="M17.8,168.8v-1.1l3.7-1.6h-3.7V165h5.7v1.1l-3.7,1.6h3.7v1.1L17.8,168.8z"/>
<path class="st0" d="M18.4,173.1c0.1,0,0.2,0,0.3,0c0.1,0,0.2,0.1,0.2,0.1c0.1,0.1,0.1,0.2,0.2,0.2c0,0.1,0.1,0.2,0.1,0.3
	c0,0.1,0,0.2-0.1,0.3c0,0.1-0.1,0.2-0.2,0.2c-0.1,0.1-0.1,0.1-0.2,0.1c-0.1,0-0.2,0-0.3,0.1c-0.1,0-0.2,0-0.3-0.1
	c-0.1,0-0.2-0.1-0.2-0.1c-0.1-0.1-0.1-0.1-0.2-0.2c0-0.1-0.1-0.2-0.1-0.3c0-0.1,0-0.2,0.1-0.3c0-0.1,0.1-0.2,0.2-0.2
	c0.1-0.1,0.1-0.1,0.2-0.1C18.3,173.1,18.3,173.1,18.4,173.1z"/>
<path class="st0" d="M18.4,180c0.1,0,0.2,0,0.3,0c0.1,0,0.2,0.1,0.2,0.1c0.1,0.1,0.1,0.2,0.2,0.2c0,0.1,0.1,0.2,0.1,0.3
	c0,0.1,0,0.2-0.1,0.3c0,0.1-0.1,0.2-0.2,0.2c-0.1,0.1-0.1,0.1-0.2,0.1c-0.1,0-0.2,0-0.3,0.1c-0.1,0-0.2,0-0.3-0.1
	c-0.1,0-0.2-0.1-0.2-0.1c-0.1-0.1-0.1-0.1-0.2-0.2c0-0.1-0.1-0.2-0.1-0.3c0-0.1,0-0.2,0.1-0.3c0-0.1,0.1-0.2,0.2-0.2
	c0.1-0.1,0.1-0.1,0.2-0.1C18.3,180,18.3,180,18.4,180z"/>
<path class="st0" d="M20.2,189.7c-0.3,0-0.7,0-1-0.1c-0.3-0.1-0.6-0.2-0.8-0.4c-0.2-0.2-0.4-0.4-0.5-0.7c-0.1-0.3-0.2-0.6-0.2-0.9
	c0-0.3,0.1-0.6,0.2-0.9c0.1-0.3,0.3-0.5,0.5-0.6c0.2-0.2,0.5-0.3,0.8-0.4c0.3-0.1,0.7-0.1,1-0.1h0.8c0.3,0,0.7,0,1,0.1
	c0.3,0.1,0.6,0.2,0.8,0.4c0.2,0.2,0.4,0.4,0.5,0.6c0.1,0.3,0.2,0.6,0.2,0.9c0,0.3-0.1,0.6-0.2,0.9c-0.1,0.3-0.3,0.5-0.5,0.7
	c-0.2,0.2-0.5,0.3-0.8,0.4c-0.3,0.1-0.7,0.2-1,0.1H20.2z M21.1,188.6c0.2,0,0.4,0,0.6-0.1c0.2,0,0.4-0.1,0.5-0.2
	c0.1-0.1,0.3-0.2,0.4-0.3c0.1-0.1,0.1-0.3,0.1-0.5c0-0.2,0-0.3-0.1-0.4c-0.1-0.1-0.2-0.2-0.3-0.3c-0.2-0.1-0.3-0.1-0.5-0.1
	c-0.2,0-0.4,0-0.6,0h-0.8c-0.2,0-0.4,0-0.6,0c-0.2,0-0.3,0.1-0.5,0.1c-0.1,0.1-0.2,0.2-0.3,0.3c-0.1,0.1-0.1,0.3-0.1,0.4
	c0,0.2,0,0.3,0.1,0.5c0.1,0.1,0.2,0.2,0.3,0.3c0.2,0.1,0.3,0.1,0.5,0.2c0.2,0,0.4,0.1,0.6,0.1L21.1,188.6z"/>
<path class="st0" d="M20.1,194.3l-0.7-0.6h-1.7v-1.1h5.7v1.1h-2.6l0.7,0.5l1.9,1.4v1.3L21,195l-3.2,2v-1.3L20.1,194.3z"/>
<path class="st0" d="M3.9,118.8V118H1.8v-1.1h5.7v1.9c0,0.3,0,0.6-0.1,0.8c-0.1,0.2-0.2,0.5-0.3,0.7c-0.1,0.2-0.3,0.3-0.5,0.4
	c-0.2,0.1-0.5,0.2-0.8,0.2c-0.2,0-0.4,0-0.5-0.1c-0.2,0-0.3-0.1-0.4-0.2c-0.1-0.1-0.2-0.2-0.3-0.3c-0.1-0.1-0.2-0.3-0.2-0.4
	l-2.3,1.2h0v-1.2L3.9,118.8z M4.8,118v0.8c0,0.3,0.1,0.5,0.2,0.7c0.2,0.2,0.4,0.3,0.7,0.2c0.2,0,0.5-0.1,0.7-0.2
	c0.2-0.2,0.3-0.5,0.2-0.7V118H4.8z"/>
<path class="st0" d="M4.3,127.3V125H2.7v2.7H1.8v-3.8h5.7v3.8H6.6V125H5.1v2.3H4.3z"/>
<path class="st0" d="M3.3,133.6c0.1,0,0.2,0,0.3-0.1c0.1,0,0.2-0.1,0.2-0.2c0.1-0.1,0.2-0.2,0.2-0.3c0.1-0.2,0.1-0.3,0.2-0.5
	c0.1-0.2,0.2-0.5,0.2-0.7c0.1-0.2,0.2-0.4,0.4-0.6c0.1-0.2,0.3-0.3,0.5-0.4c0.2-0.1,0.4-0.2,0.7-0.1c0.2,0,0.5,0,0.7,0.1
	c0.2,0.1,0.4,0.2,0.5,0.4c0.1,0.2,0.2,0.4,0.3,0.6c0.1,0.3,0.1,0.5,0.1,0.8c0,0.3,0,0.5-0.1,0.8c-0.1,0.2-0.2,0.4-0.4,0.6
	c-0.2,0.2-0.3,0.3-0.6,0.4c-0.2,0.1-0.5,0.2-0.7,0.1v-1.1c0.1,0,0.2,0,0.3-0.1c0.1,0,0.2-0.1,0.3-0.2c0.1-0.1,0.1-0.2,0.2-0.3
	c0-0.1,0.1-0.3,0.1-0.4c0-0.1,0-0.3,0-0.4c0-0.1-0.1-0.2-0.2-0.3c-0.1-0.1-0.1-0.1-0.2-0.2c-0.1,0-0.2-0.1-0.3-0.1
	c-0.1,0-0.2,0-0.3,0.1c-0.1,0.1-0.2,0.1-0.2,0.2c-0.1,0.1-0.1,0.2-0.2,0.4c-0.1,0.2-0.1,0.3-0.2,0.5c-0.1,0.2-0.2,0.5-0.3,0.7
	c-0.1,0.2-0.2,0.4-0.4,0.6c-0.1,0.2-0.3,0.3-0.5,0.4c-0.2,0.1-0.4,0.1-0.6,0.1c-0.2,0-0.5,0-0.7-0.1c-0.2-0.1-0.4-0.2-0.5-0.4
	c-0.1-0.2-0.2-0.4-0.3-0.6c-0.1-0.3-0.1-0.5-0.1-0.8c0-0.2,0-0.4,0-0.5c0-0.2,0.1-0.3,0.2-0.5c0.1-0.2,0.1-0.3,0.2-0.5
	c0.1-0.1,0.2-0.3,0.3-0.4c0.1-0.1,0.3-0.2,0.5-0.2c0.2-0.1,0.4-0.1,0.6-0.1v1.1c-0.2,0-0.3,0-0.5,0.1c-0.1,0-0.2,0.1-0.3,0.2
	c-0.1,0.1-0.1,0.2-0.2,0.4c0,0.1,0,0.3,0,0.4c0,0.1,0,0.3,0,0.4c0,0.1,0.1,0.2,0.1,0.3c0.1,0.1,0.1,0.1,0.2,0.2
	C3.1,133.6,3.2,133.6,3.3,133.6z"/>
<path class="st0" d="M4.3,141v-2.3H2.7v2.7H1.8v-3.8h5.7v3.8H6.6v-2.7H5.1v2.3H4.3z"/>
<path class="st0" d="M6.6,148.6v-1.8H1.8v-1.1h4.8V144h0.9v4.6L6.6,148.6z"/>
<path class="st0" d="M4.1,159c0.3,0,0.7,0,1,0.1c0.3,0.1,0.6,0.1,0.9,0.2c0.3,0.1,0.5,0.2,0.8,0.3c0.2,0.1,0.4,0.3,0.6,0.4
	c0.2,0.1,0.3,0.3,0.5,0.4c0.1,0.1,0.2,0.3,0.3,0.4l-0.6,0.2c-0.1-0.2-0.3-0.3-0.5-0.4c-0.2-0.2-0.4-0.3-0.7-0.4
	c-0.3-0.1-0.7-0.2-1-0.3c-0.4-0.1-0.9-0.1-1.3-0.1H4c-0.4,0-0.9,0-1.3,0.1c-0.3,0.1-0.7,0.2-1,0.3c-0.3,0.1-0.5,0.2-0.7,0.4
	c-0.2,0.1-0.3,0.3-0.5,0.4l-0.6-0.2c0.1-0.2,0.2-0.3,0.3-0.4c0.1-0.2,0.3-0.3,0.4-0.4c0.2-0.2,0.4-0.3,0.6-0.4
	c0.2-0.1,0.5-0.2,0.8-0.3c0.3-0.1,0.6-0.2,0.9-0.2c0.3-0.1,0.7-0.1,1-0.1H4.1z"/>
<path class="st0" d="M1.8,168.8V165h0.8l2,1.8c0.2,0.1,0.3,0.3,0.4,0.4c0.1,0.1,0.2,0.2,0.3,0.2c0.1,0.1,0.2,0.1,0.3,0.1
	c0.1,0,0.2,0,0.3,0c0.1,0,0.2,0,0.3-0.1c0.1,0,0.2-0.1,0.3-0.2c0.1-0.1,0.1-0.1,0.2-0.2c0-0.1,0-0.2,0-0.3c0-0.2-0.1-0.5-0.2-0.7
	c-0.2-0.2-0.4-0.2-0.7-0.2v-1.1c0.2,0,0.5,0,0.7,0.1c0.2,0.1,0.4,0.2,0.6,0.4c0.2,0.2,0.3,0.4,0.4,0.6c0.1,0.3,0.2,0.5,0.2,0.8
	c0,0.3,0,0.5-0.1,0.8c-0.1,0.2-0.2,0.4-0.3,0.6c-0.2,0.1-0.3,0.3-0.5,0.3c-0.2,0.1-0.4,0.1-0.7,0.1c-0.2,0-0.4,0-0.5-0.1
	c-0.2-0.1-0.3-0.1-0.5-0.2c-0.2-0.1-0.3-0.2-0.5-0.4l-0.5-0.5l-1.1-1.1v2.5L1.8,168.8z"/>
<path class="st0" d="M7.5,173.3l-2.1,0.5l2.1,0.6v1.4H1.8v-1h1.7h2.7l-2.5-0.8v-0.5l2.4-0.7l-2.6,0.1H1.8v-1h5.7V173.3z"/>
<path class="st0" d="M7.5,179.1v3.3H6.6v-1.1H2.7v1.1H1.8v-3.3h0.9v1.1h3.9v-1.1H7.5z"/>
<path class="st0" d="M1.8,189.5v-1.1l3.7-1.6H1.8v-1.1h5.7v1.1l-3.7,1.6h3.7v1.1L1.8,189.5z"/>
<path class="st0" d="M4,195.5c-0.3,0-0.7,0-1-0.1c-0.3-0.1-0.6-0.1-0.9-0.2c-0.3-0.1-0.5-0.2-0.8-0.4c-0.2-0.1-0.4-0.3-0.6-0.4
	c-0.2-0.1-0.3-0.3-0.5-0.5c-0.1-0.1-0.2-0.3-0.3-0.4l0.6-0.2c0.1,0.2,0.3,0.3,0.5,0.4c0.2,0.2,0.5,0.3,0.7,0.4
	c0.3,0.1,0.7,0.2,1,0.3c0.4,0.1,0.9,0.1,1.3,0.1h0.1c0.4,0,0.9,0,1.3-0.1c0.3-0.1,0.7-0.2,1-0.3c0.2-0.1,0.5-0.2,0.7-0.4
	c0.2-0.1,0.3-0.3,0.5-0.4l0.6,0.2c-0.1,0.2-0.2,0.3-0.3,0.4c-0.1,0.2-0.3,0.3-0.5,0.5c-0.2,0.2-0.4,0.3-0.6,0.4
	c-0.2,0.1-0.5,0.3-0.8,0.4c-0.3,0.1-0.6,0.2-0.9,0.2c-0.3,0.1-0.7,0.1-1,0.1H4z"/>
</svg>
